<svg width="250" height="100" viewBox="0 0 250 100" fill="none" xmlns="http://www.w3.org/2000/svg">
<path d="M99.524 100L105.149 88.4698L96.6032 70.1509H101.363L104.933 77.9095C105.798 79.7414 106.664 81.6811 107.421 83.4052C108.286 81.4655 109.044 79.7414 109.909 77.9095L113.479 70.1509H118.023L104.068 99.8923L99.524 100ZM76.8066 100V70.1509H81.1337V71.3362C82.3237 70.5819 84.2709 69.7198 86.6508 69.7198C92.4924 69.7198 96.7114 74.2457 96.7114 80.4957C96.7114 86.8535 92.1679 91.3793 85.7854 91.3793C83.73 91.3793 82.1073 90.8405 81.0255 90.4095V99.8923L76.8066 100ZM81.1337 86.3147C81.9991 86.7457 83.8382 87.6078 86.0017 87.6078C89.788 87.6078 92.3842 84.8061 92.3842 80.819C92.3842 76.7241 89.6798 73.7069 86.0017 73.7069C84.2709 73.7069 82.4319 74.3535 81.1337 75.431V86.3147ZM53.1155 100V70.1509H57.4427V71.3362C58.6326 70.5819 60.5798 69.7198 62.9598 69.7198C68.8014 69.7198 73.0203 74.2457 73.0203 80.4957C73.0203 86.8535 68.4769 91.3793 62.0943 91.3793C60.0389 91.3793 58.4163 90.8405 57.3345 90.4095V99.8923L53.1155 100ZM57.4427 86.3147C58.3081 86.7457 60.1471 87.6078 62.3107 87.6078C66.0969 87.6078 68.6932 84.8061 68.6932 80.819C68.6932 76.7241 65.9888 73.7069 62.3107 73.7069C60.5798 73.7069 58.7408 74.3535 57.4427 75.431V86.3147ZM235.071 91.3793C233.016 91.3793 231.393 90.7328 230.203 89.4397C229.122 88.2543 228.581 86.4224 228.581 83.6207V74.1379H224.794V70.1509H228.581V64.7629L232.908 64.0086V70.1509H238.966V74.1379H232.908V82.9742C232.908 85.6681 233.341 87.5 235.612 87.5C236.586 87.5 237.668 87.1767 238.533 86.638L238.966 86.3147V90.5173L238.749 90.625C237.992 91.0561 236.478 91.3793 235.071 91.3793ZM213.219 91.3793C206.945 91.3793 202.185 86.7457 202.185 80.4957C202.185 74.3535 206.945 69.6121 213.219 69.6121C219.494 69.6121 224.254 74.2457 224.254 80.4957C224.254 86.7457 219.494 91.3793 213.219 91.3793ZM213.219 73.7069C209.433 73.7069 206.512 76.6164 206.512 80.6035C206.512 84.4828 209.433 87.5 213.219 87.5C217.006 87.5 219.926 84.5905 219.926 80.6035C219.926 76.6164 217.006 73.7069 213.219 73.7069ZM137.062 91.3793C128.299 91.3793 121.592 84.6983 121.592 75.7543C121.592 66.8104 128.191 60.1293 137.062 60.1293C145.824 60.1293 152.531 66.8104 152.531 75.7543C152.531 84.6983 145.824 91.3793 137.062 91.3793ZM137.062 64.4397C130.788 64.4397 126.136 69.2888 126.136 75.7543C126.136 82.2198 130.788 87.069 137.062 87.069C143.336 87.069 147.988 82.2198 147.988 75.7543C147.988 69.2888 143.336 64.4397 137.062 64.4397ZM37.9706 91.3793C36.8888 91.3793 34.7252 91.1638 32.9944 89.8707C31.4799 88.7931 30.7226 87.1767 30.7226 85.1293C30.7226 82.8664 31.6962 81.1423 33.5353 79.9569C34.9416 79.0948 36.997 78.556 39.3769 78.556C40.675 78.556 42.0814 78.6638 43.3795 78.9871V77.694C43.3795 76.2931 43.055 75.3233 42.2977 74.569C41.5405 73.9224 40.3505 73.5992 38.7278 73.5992C36.5643 73.5992 34.4007 74.2457 32.6698 75.5388L32.1289 75.8621V71.444L32.2371 71.3362C34.1843 70.1509 36.4561 69.6121 39.1605 69.6121C41.865 69.6121 44.0286 70.2586 45.4349 71.5517C46.8412 72.7371 47.5984 74.6767 47.5984 77.0474V85.5604C47.5984 86.4224 47.8148 87.3923 48.8966 87.3923C49.2211 87.3923 49.6538 87.2845 49.9784 87.1767L50.4111 86.9612V90.7328L50.1947 90.8405C49.8702 90.9483 49.1129 91.2716 48.1393 91.2716C46.4085 91.2716 45.0022 90.5173 44.1367 89.2242C42.9468 90.3017 40.7832 91.3793 37.9706 91.3793ZM39.8096 82.1121C38.0788 82.1121 35.1579 82.4354 35.1579 84.9138C35.1579 86.8535 36.997 87.5 38.7278 87.5C40.3505 87.5 42.1895 86.8535 43.4877 85.8836V82.5431C42.4059 82.2198 40.9996 82.1121 39.8096 82.1121ZM194.288 90.9483L181.74 74.3535C180.225 72.4138 178.711 70.3664 177.088 68.1035C177.088 70.4742 177.196 73.1681 177.196 75.7543V90.9483H172.761V60.6681H176.98L189.528 77.2629C191.043 79.2026 192.557 81.25 194.18 83.5129C194.18 81.1423 194.072 78.4483 194.072 75.8621V60.6681H198.507V90.9483H194.288ZM155.993 90.9483V70.1509H160.32V72.6293C161.835 70.9052 163.89 69.9354 166.054 69.9354C166.595 69.9354 167.027 70.0431 167.46 70.1509L167.676 70.2586V74.569L167.244 74.4612C166.811 74.3535 166.378 74.3535 165.837 74.3535C163.457 74.3535 161.51 75.431 160.212 77.694V91.0561L155.993 90.9483ZM22.3929 90.9483V77.2629H6.81523V90.9483H2.27174V60.6681H6.81523V73.1681H22.3929V60.6681H26.9364V90.9483H22.3929Z" fill="black"/>
<path d="M244.267 65.4094V63.6853H245.132C245.781 63.6853 246.214 64.0086 246.214 64.5474C246.214 65.0862 245.781 65.4094 245.132 65.4094H244.267ZM246.214 68.1034H247.296L245.997 66.056C246.646 65.8405 247.079 65.3017 247.079 64.5474C247.079 63.4698 246.214 62.931 245.132 62.931H243.293V68.1034H244.267V66.2715H245.132L246.214 68.1034ZM245.132 69.5043C242.752 69.5043 241.129 67.7801 241.129 65.5172C241.129 63.2543 242.752 61.5301 245.132 61.5301C247.512 61.5301 249.135 63.2543 249.135 65.5172C249.135 67.7801 247.404 69.5043 245.132 69.5043ZM245.132 70.2586C247.945 70.2586 250 68.2112 250 65.5172C250 62.8232 247.945 60.7758 245.132 60.7758C242.319 60.7758 240.264 62.8232 240.264 65.5172C240.264 68.2112 242.319 70.2586 245.132 70.2586Z" fill="black"/>
<path d="M214.95 0C229.446 0 241.238 11.7457 241.238 26.1854C241.238 40.625 229.446 52.3707 214.95 52.3707C200.454 52.3707 188.663 40.625 188.663 26.1854C188.663 11.6379 200.454 0 214.95 0Z" fill="#E24E67"/>
<path d="M210.407 21.875C210.948 19.9353 210.082 17.9957 208.351 17.4569C206.621 16.9181 204.89 18.1034 204.349 20.0431C203.808 21.9827 204.673 23.9224 206.404 24.4612C208.027 24.8922 209.866 23.8146 210.407 21.875Z" fill="black"/>
<path d="M219.494 21.875C218.953 19.9353 219.818 17.9957 221.549 17.4569C223.28 16.9181 225.011 18.1034 225.552 20.0431C226.093 21.9827 225.227 23.9224 223.496 24.4612C221.765 25 220.035 23.8146 219.494 21.875Z" fill="black"/>
<path d="M224.254 38.9008C224.254 39.0086 224.362 39.0086 224.362 38.9008C224.903 37.7155 227.715 31.3577 219.818 29.3103C213.544 27.6939 205.971 32.9741 204.565 38.7931C204.565 38.9008 204.673 38.9008 204.673 38.9008C213.544 31.4655 222.415 34.0517 224.254 38.9008Z" fill="black"/>
<path d="M151.99 0C166.486 0 178.278 11.7457 178.278 26.1854C178.278 40.625 166.486 52.3707 151.99 52.3707C137.495 52.3707 125.703 40.625 125.703 26.1854C125.703 11.6379 137.495 0 151.99 0Z" fill="#EF9EA1"/>
<path d="M147.447 21.875C147.988 19.9353 147.122 17.9957 145.392 17.4569C143.661 16.9181 141.93 18.1034 141.389 20.0431C140.848 21.9827 141.714 23.9224 143.444 24.4612C145.067 24.8922 146.906 23.8146 147.447 21.875Z" fill="black"/>
<path d="M156.534 21.875C155.993 19.9353 156.858 17.9957 158.589 17.4569C160.32 16.9181 162.051 18.1034 162.592 20.0431C163.133 21.9827 162.267 23.9224 160.537 24.4612C158.914 24.8922 157.075 23.8146 156.534 21.875Z" fill="black"/>
<path d="M151.99 31.5733C147.555 31.5733 143.769 33.944 141.822 36.3147C141.714 36.4224 141.822 36.5302 141.93 36.4224C144.526 35.1293 148.096 33.944 151.99 33.944C155.885 33.944 159.455 35.1293 162.051 36.4224C162.159 36.4224 162.267 36.3147 162.159 36.3147C160.212 33.8362 156.426 31.5733 151.99 31.5733Z" fill="black"/>
<path d="M88.9225 0C103.418 0 115.21 11.7457 115.21 26.1854C115.21 40.625 103.418 52.3707 88.9225 52.3707C74.4266 52.3707 62.6352 40.625 62.6352 26.1854C62.7434 11.6379 74.4266 0 88.9225 0Z" fill="#99CD9B"/>
<path d="M84.3791 20.0431C84.92 21.9827 84.0545 23.9224 82.3237 24.4612C80.5928 25 78.862 23.8146 78.3211 21.875C77.7802 19.9353 78.6456 17.9957 80.3765 17.4569C81.9992 16.9181 83.8382 18.1034 84.3791 20.0431Z" fill="black"/>
<path d="M93.5742 20.0431C93.0333 21.9827 93.8987 23.9224 95.6296 24.4612C97.3604 25 99.0913 23.8146 99.6322 21.875C100.173 19.9353 99.3077 17.9957 97.5768 17.4569C95.8459 16.9181 94.1151 18.1034 93.5742 20.0431Z" fill="black"/>
<path d="M78.862 31.681C80.5928 34.1594 84.4873 36.5301 88.9226 36.5301C93.3579 36.5301 97.1441 34.1594 99.0913 31.7888C99.1995 31.681 99.0913 31.5732 98.9831 31.681C96.3869 32.9741 92.817 34.1595 88.9226 34.1595C85.0281 34.1595 81.4583 32.9741 78.862 31.681Z" fill="black"/>
<path d="M26.2873 0C40.7832 0 52.5746 11.7457 52.5746 26.1854C52.5746 40.625 40.7832 52.3707 26.2873 52.3707C11.7914 52.3707 0 40.5173 0 26.0776C0 11.6379 11.7914 0 26.2873 0Z" fill="#0DAA5D"/>
<path d="M21.7438 20.0431C22.2847 21.9827 21.4193 23.9224 19.6884 24.4612C17.9576 25 16.2267 23.8146 15.6858 21.875C15.1449 19.9353 16.0104 17.9957 17.7412 17.4569C19.3639 16.9181 21.2029 18.1034 21.7438 20.0431Z" fill="black"/>
<path d="M30.8308 20.0431C30.2899 21.9827 31.1553 23.9224 32.8862 24.4612C34.617 25 36.3479 23.8146 36.8888 21.875C37.4297 19.9353 36.5642 17.9957 34.8334 17.4569C33.2107 16.9181 31.3717 18.1034 30.8308 20.0431Z" fill="black"/>
<path d="M35.5907 29.2026C36.2397 30.2802 39.0524 36.7457 31.1554 38.7931C24.881 40.4095 17.2004 35.1293 15.9022 29.3104C15.9022 29.2026 16.0104 29.2026 16.0104 29.2026C24.881 36.6379 33.7516 34.0517 35.5907 29.2026Z" fill="black"/>
</svg>
